<?xml version="1.0" encoding="UTF-8"?>
<!-- HSD Dashboard Icon Sprite (24x24, stroke-based, currentColor) -->
<svg xmlns="http://www.w3.org/2000/svg" style="display:none">
  <!-- HOME -->
  <symbol id="icon-home" viewBox="0 0 24 24">
    <title>Home</title>
    <g fill="none" stroke="currentColor" stroke-width="1.8" stroke-linecap="round" stroke-linejoin="round">
      <path d="M3 11l9-8 9 8"/>
      <path d="M5 10.5V20a2 2 0 0 0 2 2h3v-6h4v6h3a2 2 0 0 0 2-2v-9.5"/>
    </g>
  </symbol>

  <!-- DASHBOARD / GRID -->
  <symbol id="icon-dashboard" viewBox="0 0 24 24">
    <title>Dashboard</title>
    <g fill="none" stroke="currentColor" stroke-width="1.8" stroke-linecap="round" stroke-linejoin="round">
      <rect x="3" y="3" width="8" height="8" rx="2"/>
      <rect x="13" y="3" width="8" height="5" rx="2"/>
      <rect x="13" y="10" width="8" height="11" rx="2"/>
      <rect x="3" y="13" width="8" height="8" rx="2"/>
    </g>
  </symbol>

  <!-- MAP -->
  <symbol id="icon-map" viewBox="0 0 24 24">
    <title>Map</title>
    <g fill="none" stroke="currentColor" stroke-width="1.8" stroke-linecap="round" stroke-linejoin="round">
      <polyline points="3,6 9,3 15,6 21,3 21,18 15,21 9,18 3,21 3,6"/>
      <line x1="9" y1="3" x2="9" y2="18"/>
      <line x1="15" y1="6" x2="15" y2="21"/>
    </g>
  </symbol>

  <!-- LAYERS -->
  <symbol id="icon-layers" viewBox="0 0 24 24">
    <title>Layers</title>
    <g fill="none" stroke="currentColor" stroke-width="1.8" stroke-linecap="round" stroke-linejoin="round">
      <path d="M12 3l9 5-9 5-9-5 9-5z"/>
      <path d="M21 12l-9 5-9-5"/>
      <path d="M21 16l-9 5-9-5"/>
    </g>
  </symbol>

  <!-- SONAR / DEPTH -->
  <symbol id="icon-sonar" viewBox="0 0 24 24">
    <title>Sonar / Depth</title>
    <g fill="none" stroke="currentColor" stroke-width="1.8" stroke-linecap="round" stroke-linejoin="round">
      <circle cx="12" cy="8" r="1.6"/>
      <path d="M12 4v2"/>
      <path d="M4 20c4-6 12-6 16 0"/>
      <path d="M6.5 16.2c3-4 8-4 11 0"/>
    </g>
  </symbol>

  <!-- BOAT / VESSEL -->
  <symbol id="icon-boat" viewBox="0 0 24 24">
    <title>Vessel</title>
    <g fill="none" stroke="currentColor" stroke-width="1.8" stroke-linecap="round" stroke-linejoin="round">
      <path d="M3 16h18l-2 3H5l-2-3z"/>
      <rect x="9" y="10" width="6" height="4" rx="1"/>
      <path d="M12 10V7"/>
    </g>
  </symbol>

  <!-- COMPASS -->
  <symbol id="icon-compass" viewBox="0 0 24 24">
    <title>Compass</title>
    <g fill="none" stroke="currentColor" stroke-width="1.8" stroke-linecap="round" stroke-linejoin="round">
      <circle cx="12" cy="12" r="9"/>
      <path d="M15 9l-5 .8L9.2 15 15 14.2 15.8 9z"/>
    </g>
  </symbol>

  <!-- LOCATION PIN -->
  <symbol id="icon-pin" viewBox="0 0 24 24">
    <title>Location</title>
    <g fill="none" stroke="currentColor" stroke-width="1.8" stroke-linecap="round" stroke-linejoin="round">
      <path d="M12 21s-7-7.3-7-11.5A7 7 0 0 1 12 3a7 7 0 0 1 7 6.5C19 13.7 12 21 12 21z"/>
      <circle cx="12" cy="10" r="2.5"/>
    </g>
  </symbol>

  <!-- DATABASE -->
  <symbol id="icon-database" viewBox="0 0 24 24">
    <title>Database</title>
    <g fill="none" stroke="currentColor" stroke-width="1.8" stroke-linecap="round" stroke-linejoin="round">
      <ellipse cx="12" cy="5" rx="7" ry="3"/>
      <path d="M5 5v6c0 1.7 3.1 3 7 3s7-1.3 7-3V5"/>
      <path d="M5 11c0 1.7 3.1 3 7 3s7-1.3 7-3"/>
      <path d="M5 15c0 1.7 3.1 3 7 3s7-1.3 7-3v-4"/>
    </g>
  </symbol>

  <!-- UPLOAD -->
  <symbol id="icon-upload" viewBox="0 0 24 24">
    <title>Upload</title>
    <g fill="none" stroke="currentColor" stroke-width="1.8" stroke-linecap="round" stroke-linejoin="round">
      <path d="M12 16V8"/>
      <path d="M8 12l4-4 4 4"/>
      <rect x="4" y="18" width="16" height="3" rx="1.5"/>
    </g>
  </symbol>

  <!-- DOWNLOAD -->
  <symbol id="icon-download" viewBox="0 0 24 24">
    <title>Download</title>
    <g fill="none" stroke="currentColor" stroke-width="1.8" stroke-linecap="round" stroke-linejoin="round">
      <path d="M12 8v8"/>
      <path d="M8 12l4 4 4-4"/>
      <rect x="4" y="18" width="16" height="3" rx="1.5"/>
    </g>
  </symbol>

  <!-- SEARCH -->
  <symbol id="icon-search" viewBox="0 0 24 24">
    <title>Search</title>
    <g fill="none" stroke="currentColor" stroke-width="1.8" stroke-linecap="round" stroke-linejoin="round">
      <circle cx="11" cy="11" r="6"/>
      <line x1="16.5" y1="16.5" x2="21" y2="21"/>
    </g>
  </symbol>

  <!-- NOTIFICATIONS / BELL -->
  <symbol id="icon-bell" viewBox="0 0 24 24">
    <title>Notifications</title>
    <g fill="none" stroke="currentColor" stroke-width="1.8" stroke-linecap="round" stroke-linejoin="round">
      <path d="M6 16v-5a6 6 0 1 1 12 0v5"/>
      <path d="M4 16h16"/>
      <path d="M10 20a2 2 0 0 0 4 0"/>
    </g>
  </symbol>

  <!-- SETTINGS / SLIDERS -->
  <symbol id="icon-settings" viewBox="0 0 24 24">
    <title>Settings</title>
    <g fill="none" stroke="currentColor" stroke-width="1.8" stroke-linecap="round" stroke-linejoin="round">
      <line x1="4" y1="6" x2="20" y2="6"/><circle cx="9" cy="6" r="2"/>
      <line x1="4" y1="12" x2="20" y2="12"/><circle cx="15" cy="12" r="2"/>
      <line x1="4" y1="18" x2="20" y2="18"/><circle cx="12" cy="18" r="2"/>
    </g>
  </symbol>

  <!-- USER -->
  <symbol id="icon-user" viewBox="0 0 24 24">
    <title>User</title>
    <g fill="none" stroke="currentColor" stroke-width="1.8" stroke-linecap="round" stroke-linejoin="round">
      <circle cx="12" cy="8" r="4"/>
      <path d="M4 21c1.8-3.5 5.1-5 8-5s6.2 1.5 8 5"/>
    </g>
  </symbol>

  <!-- LOG OUT -->
  <symbol id="icon-logout" viewBox="0 0 24 24">
    <title>Log out</title>
    <g fill="none" stroke="currentColor" stroke-width="1.8" stroke-linecap="round" stroke-linejoin="round">
      <path d="M9 7V5a2 2 0 0 1 2-2h6v18h-6a2 2 0 0 1-2-2v-2"/>
      <path d="M13 12H3"/>
      <path d="M6 9l-3 3 3 3"/>
    </g>
  </symbol>

  <!-- PLUS / ADD -->
  <symbol id="icon-plus" viewBox="0 0 24 24">
    <title>Add</title>
    <g fill="none" stroke="currentColor" stroke-width="1.8" stroke-linecap="round" stroke-linejoin="round">
      <path d="M12 5v14M5 12h14"/>
    </g>
  </symbol>

  <!-- EDIT / PENCIL -->
  <symbol id="icon-edit" viewBox="0 0 24 24">
    <title>Edit</title>
    <g fill="none" stroke="currentColor" stroke-width="1.8" stroke-linecap="round" stroke-linejoin="round">
      <path d="M4 17.5V20h2.5L18 8.5l-2.5-2.5L4 17.5z"/>
      <path d="M13.5 6l4 4"/>
    </g>
  </symbol>

  <!-- TRASH -->
  <symbol id="icon-trash" viewBox="0 0 24 24">
    <title>Delete</title>
    <g fill="none" stroke="currentColor" stroke-width="1.8" stroke-linecap="round" stroke-linejoin="round">
      <path d="M4 7h16"/>
      <path d="M6 7l1 13h10l1-13"/>
      <path d="M9 7V4h6v3"/>
    </g>
  </symbol>

  <!-- CALENDAR -->
  <symbol id="icon-calendar" viewBox="0 0 24 24">
    <title>Calendar</title>
    <g fill="none" stroke="currentColor" stroke-width="1.8" stroke-linecap="round" stroke-linejoin="round">
      <rect x="3" y="5" width="18" height="16" rx="2"/>
      <line x1="3" y1="10" x2="21" y2="10"/>
      <line x1="8" y1="3" x2="8" y2="7"/>
      <line x1="16" y1="3" x2="16" y2="7"/>
    </g>
  </symbol>

  <!-- CLIPBOARD / SURVEY -->
  <symbol id="icon-clipboard" viewBox="0 0 24 24">
    <title>Survey</title>
    <g fill="none" stroke="currentColor" stroke-width="1.8" stroke-linecap="round" stroke-linejoin="round">
      <rect x="6" y="5" width="12" height="16" rx="2"/>
      <rect x="9" y="3" width="6" height="4" rx="1"/>
      <path d="M9 13h6M9 17h6"/>
    </g>
  </symbol>

  <!-- CHART / PROGRESS -->
  <symbol id="icon-chart" viewBox="0 0 24 24">
    <title>Progress</title>
    <g fill="none" stroke="currentColor" stroke-width="1.8" stroke-linecap="round" stroke-linejoin="round">
      <path d="M4 19h16"/>
      <rect x="6" y="10" width="3" height="7" rx="1"/>
      <rect x="11" y="6" width="3" height="11" rx="1"/>
      <rect x="16" y="12" width="3" height="5" rx="1"/>
    </g>
  </symbol>

  <!-- GAUGE -->
  <symbol id="icon-gauge" viewBox="0 0 24 24">
    <title>Gauge</title>
    <g fill="none" stroke="currentColor" stroke-width="1.8" stroke-linecap="round" stroke-linejoin="round">
      <path d="M6 16a6 6 0 1 1 12 0"/>
      <line x1="12" y1="12" x2="16" y2="14"/>
    </g>
  </symbol>

  <!-- WAVES / BATHY LAYERS -->
  <symbol id="icon-waves" viewBox="0 0 24 24">
    <title>Waves</title>
    <g fill="none" stroke="currentColor" stroke-width="1.8" stroke-linecap="round" stroke-linejoin="round">
      <path d="M3 12c3 2 6 2 9 0s6-2 9 0"/>
      <path d="M3 16c3 2 6 2 9 0s6-2 9 0"/>
    </g>
  </symbol>
</svg>
